<svg xmlns="http://www.w3.org/2000/svg" xmlns:xlink="http://www.w3.org/1999/xlink" width="500" zoomAndPan="magnify" viewBox="0 0 375 374.999991" height="500" preserveAspectRatio="xMidYMid meet" version="1.0"><defs><g/><clipPath id="7af060b96d"><path d="M 66 159.339844 L 134 159.339844 L 134 302 L 66 302 Z M 66 159.339844 " clip-rule="nonzero"/></clipPath><clipPath id="19271e945c"><path d="M 145 337 L 203.25 337 L 203.25 375 L 145 375 Z M 145 337 " clip-rule="nonzero"/></clipPath><clipPath id="664f0e26d6"><path d="M 156.996094 200 L 216 200 L 216 337 L 156.996094 337 Z M 156.996094 200 " clip-rule="nonzero"/></clipPath><clipPath id="2a525c741d"><path d="M 9.015625 139.523438 L 365.992188 139.523438 L 365.992188 143.628906 L 9.015625 143.628906 Z M 9.015625 139.523438 " clip-rule="nonzero"/></clipPath><clipPath id="8907f67363"><path d="M 235.46875 139.523438 L 318.015625 140.074219 L 365.984375 141.027344 L 365.984375 142.128906 L 318.015625 143.078125 L 235.46875 143.628906 L 139.53125 143.628906 L 56.984375 143.078125 L 9.015625 142.128906 L 9.015625 141.027344 L 56.984375 140.074219 L 139.53125 139.523438 Z M 235.46875 139.523438 " clip-rule="nonzero"/></clipPath><clipPath id="677d8cff3c"><path d="M 0.015625 0.523438 L 356.992188 0.523438 L 356.992188 4.628906 L 0.015625 4.628906 Z M 0.015625 0.523438 " clip-rule="nonzero"/></clipPath><clipPath id="3af2a0e8e2"><path d="M 226.46875 0.523438 L 309.015625 1.074219 L 356.984375 2.027344 L 356.984375 3.128906 L 309.015625 4.078125 L 226.46875 4.628906 L 130.53125 4.628906 L 47.984375 4.078125 L 0.015625 3.128906 L 0.015625 2.027344 L 47.984375 1.074219 L 130.53125 0.523438 Z M 226.46875 0.523438 " clip-rule="nonzero"/></clipPath><clipPath id="e4861c33a1"><rect x="0" width="357" y="0" height="5"/></clipPath><clipPath id="c9a2936310"><path d="M 171.472656 159.339844 L 374.722656 159.339844 L 374.722656 375 L 171.472656 375 Z M 171.472656 159.339844 " clip-rule="nonzero"/></clipPath><clipPath id="df88278a8a"><path d="M 70 0.359375 L 138 0.359375 L 138 143 L 70 143 Z M 70 0.359375 " clip-rule="nonzero"/></clipPath><clipPath id="70935d8726"><path d="M 133 152 L 203.722656 152 L 203.722656 199 L 133 199 Z M 133 152 " clip-rule="nonzero"/></clipPath><clipPath id="34dc452821"><path d="M 0.742188 178 L 59 178 L 59 216 L 0.742188 216 Z M 0.742188 178 " clip-rule="nonzero"/></clipPath><clipPath id="7d0476735b"><rect x="0" width="204" y="0" height="216"/></clipPath></defs><rect x="-37.5" width="450" fill="#ffffff" y="-37.499999" height="449.999989" fill-opacity="1"/><rect x="-37.5" width="450" fill="#1e40af" y="-37.499999" height="449.999989" fill-opacity="1"/><path fill="#55b1e7" d="M 166.035156 273.511719 L 136.332031 252.542969 L 136.332031 249.433594 L 166.035156 270.402344 Z M 166.035156 280.78125 L 136.332031 259.8125 L 136.332031 256.707031 L 166.035156 277.671875 Z M 166.035156 288.050781 L 136.332031 267.085938 L 136.332031 263.976562 L 166.035156 284.941406 Z M 166.035156 295.320312 L 136.332031 274.351562 L 136.332031 271.242188 L 166.035156 292.210938 Z M 166.035156 302.589844 L 136.332031 281.621094 L 136.332031 278.515625 L 166.035156 299.484375 Z M 166.035156 309.859375 L 136.332031 288.894531 L 136.332031 285.78125 L 166.035156 306.75 Z M 166.035156 317.128906 L 136.332031 296.160156 L 136.332031 293.050781 L 166.035156 314.019531 Z M 136.332031 242.929688 L 129.917969 246.625 L 129.917969 303.695312 L 132.835938 304.058594 L 134.296875 304.246094 L 135.367188 305.269531 L 141.90625 311.523438 L 158.140625 322.988281 L 163.0625 322.300781 L 136.332031 303.429688 L 136.332031 300.324219 L 166.035156 321.289062 L 166.035156 321.882812 L 166.871094 321.769531 L 169.382812 321.417969 L 169.726562 321.847656 L 169.726562 266.507812 Z M 123.90625 250.089844 L 123.90625 273.75 L 122.265625 273.75 L 122.265625 251.035156 L 116.523438 254.347656 L 116.523438 291.339844 L 115.378906 291.339844 L 115.378906 255.007812 L 111.636719 257.160156 L 111.636719 295.765625 L 123.621094 295.765625 L 123.621094 302.902344 L 127.515625 303.390625 L 127.515625 248.007812 L 123.90625 250.089844 " fill-opacity="1" fill-rule="nonzero"/><path fill="#211c1d" d="M 108.351562 340.953125 L 108.671875 341.238281 L 108.671875 343.804688 L 108.351562 343.523438 L 107.167969 342.472656 L 107.167969 339.90625 L 108.351562 340.953125 " fill-opacity="1" fill-rule="nonzero"/><g clip-path="url(#7af060b96d)"><path fill="#3672c1" d="M 131.351562 210.125 L 124.148438 203.746094 L 124.148438 189.515625 L 131.351562 195.894531 Z M 131.351562 226.921875 L 124.148438 220.546875 L 124.148438 206.316406 L 131.351562 212.695312 Z M 122.855469 202.601562 L 118.175781 198.460938 L 115.652344 196.226562 L 115.652344 181.996094 L 118.175781 184.230469 L 122.855469 188.371094 Z M 122.855469 219.402344 L 118.175781 215.261719 L 115.652344 213.027344 L 115.652344 198.796875 L 118.175781 201.027344 L 122.855469 205.167969 Z M 122.855469 236.203125 L 118.175781 232.058594 L 115.652344 229.828125 L 115.652344 215.597656 L 118.175781 217.832031 L 122.855469 221.96875 Z M 114.359375 195.082031 L 113.265625 194.109375 L 108.351562 189.765625 L 107.160156 188.710938 L 107.160156 174.484375 L 108.351562 175.535156 L 113.265625 179.882812 L 114.359375 180.851562 Z M 114.359375 211.882812 L 113.265625 210.910156 L 108.351562 206.5625 L 107.160156 205.507812 L 107.160156 191.277344 L 108.351562 192.332031 L 113.265625 196.679688 L 114.359375 197.648438 Z M 114.359375 228.679688 L 113.265625 227.710938 L 108.351562 223.363281 L 107.160156 222.308594 L 107.160156 208.078125 L 108.351562 209.132812 L 113.265625 213.480469 L 114.359375 214.449219 Z M 114.359375 245.480469 L 113.265625 244.511719 L 108.351562 240.164062 L 107.160156 239.109375 L 107.160156 224.878906 L 108.351562 225.933594 L 113.265625 230.28125 L 114.359375 231.25 Z M 105.863281 187.5625 L 103.433594 185.417969 L 99.148438 181.621094 L 98.660156 181.191406 L 98.660156 166.960938 L 99.148438 167.394531 L 103.433594 171.1875 L 105.863281 173.335938 Z M 105.863281 204.363281 L 103.433594 202.21875 L 99.148438 198.417969 L 98.660156 197.992188 L 98.660156 183.757812 L 99.148438 184.191406 L 103.433594 187.984375 L 105.863281 190.136719 Z M 105.863281 221.164062 L 103.433594 219.015625 L 99.148438 215.21875 L 98.660156 214.789062 L 98.660156 200.558594 L 99.148438 200.992188 L 103.433594 204.785156 L 105.863281 206.933594 Z M 105.863281 237.964844 L 103.433594 235.8125 L 99.148438 232.015625 L 98.660156 231.589844 L 98.660156 217.355469 L 99.148438 217.789062 L 103.433594 221.582031 L 105.863281 223.730469 Z M 105.863281 254.761719 L 103.433594 252.609375 L 99.148438 248.816406 L 98.660156 248.386719 L 98.660156 234.152344 L 99.148438 234.585938 L 103.433594 238.382812 L 105.863281 240.527344 Z M 105.863281 271.558594 L 103.433594 269.410156 L 99.148438 265.617188 L 98.660156 265.183594 L 98.660156 250.953125 L 99.148438 251.382812 L 103.433594 255.175781 L 105.863281 257.328125 Z M 105.863281 288.359375 L 103.433594 286.207031 L 99.148438 282.414062 L 98.660156 281.980469 L 98.660156 267.753906 L 99.148438 268.183594 L 103.433594 271.980469 L 105.863281 274.128906 Z M 131.5 191.464844 L 122.785156 183.75 L 117.871094 179.402344 L 112.960938 175.054688 L 108.046875 170.707031 L 103.132812 166.355469 L 98.84375 162.5625 L 95.292969 159.417969 L 66.480469 180.234375 L 66.480469 212.359375 L 86.320312 220.425781 L 88.164062 221.175781 L 88.164062 299.71875 L 101.765625 301.535156 L 99.148438 299.214844 L 98.660156 298.78125 L 98.660156 284.554688 L 99.148438 284.984375 L 103.433594 288.777344 L 105.863281 290.929688 L 105.863281 295.765625 L 107.160156 295.765625 L 107.160156 292.074219 L 107.167969 292.082031 L 107.167969 289.507812 L 107.160156 289.503906 L 107.160156 275.273438 L 107.167969 275.28125 L 107.167969 272.710938 L 107.160156 272.707031 L 107.160156 258.472656 L 107.167969 258.480469 L 107.167969 255.914062 L 107.160156 255.90625 L 107.160156 241.675781 L 108.351562 242.730469 L 113.265625 247.074219 L 114.359375 248.046875 L 114.359375 250.4375 L 115.652344 249.691406 L 115.652344 249.191406 L 115.996094 249.496094 L 117.75 248.484375 L 115.652344 246.625 L 115.652344 232.394531 L 118.175781 234.628906 L 122.855469 238.769531 L 122.855469 245.539062 L 124.148438 244.792969 L 124.148438 239.914062 L 127.484375 242.871094 L 127.6875 242.753906 L 129.242188 241.855469 L 124.148438 237.347656 L 124.148438 223.117188 L 131.351562 229.496094 L 131.351562 240.644531 L 133.632812 239.328125 L 133.632812 193.355469 L 131.5 191.464844 " fill-opacity="1" fill-rule="nonzero"/></g><path fill="#55b1e7" d="M 33.773438 233.960938 L 58.710938 220.027344 L 58.710938 225.699219 L 61.492188 223.722656 L 83.640625 232.730469 L 83.640625 224.730469 L 59.304688 214.832031 L 33.773438 233.960938 " fill-opacity="1" fill-rule="nonzero"/><path fill="#55b1e7" d="M 33.773438 247.28125 L 58.710938 233.347656 L 58.710938 239.015625 L 61.492188 237.042969 L 83.640625 246.050781 L 83.640625 238.050781 L 59.304688 228.148438 L 33.773438 247.28125 " fill-opacity="1" fill-rule="nonzero"/><path fill="#55b1e7" d="M 33.773438 260.601562 L 58.710938 246.664062 L 58.710938 252.335938 L 61.492188 250.359375 L 83.640625 259.367188 L 83.640625 251.367188 L 59.304688 241.46875 L 33.773438 260.601562 " fill-opacity="1" fill-rule="nonzero"/><path fill="#55b1e7" d="M 33.773438 273.917969 L 58.710938 259.984375 L 58.710938 265.652344 L 61.492188 263.679688 L 83.640625 272.6875 L 83.640625 264.6875 L 59.304688 254.789062 L 33.773438 273.917969 " fill-opacity="1" fill-rule="nonzero"/><path fill="#55b1e7" d="M 33.773438 287.238281 L 58.710938 273.304688 L 58.710938 278.972656 L 61.492188 276.996094 L 83.640625 286.003906 L 83.640625 278.003906 L 59.304688 268.105469 L 33.773438 287.238281 " fill-opacity="1" fill-rule="nonzero"/><path fill="#55b1e7" d="M 33.773438 300.554688 L 40.011719 295.878906 L 38.277344 298.039062 Z M 33.773438 300.554688 " fill-opacity="1" fill-rule="nonzero"/><path fill="#55b1e7" d="M 83.640625 291.320312 L 83.640625 299.324219 L 82.882812 299.011719 L 61.492188 290.316406 L 58.707031 292.292969 L 58.707031 286.621094 L 45.46875 294.019531 L 44.386719 293.875 L 42.941406 293.683594 L 59.300781 281.425781 L 83.640625 291.320312 " fill-opacity="1" fill-rule="nonzero"/><path fill="#55b1e7" d="M 63.414062 296.414062 L 58.027344 295.695312 L 59.300781 294.742188 Z M 63.414062 296.414062 " fill-opacity="1" fill-rule="nonzero"/><path fill="#4c9ada" d="M 70.128906 339.214844 C 69.667969 338.832031 52.292969 327.28125 43.792969 320.335938 L -0.0078125 357.5625 L 40.542969 314.949219 L 43.789062 311.535156 L 49.304688 317.332031 L 70.128906 339.214844 " fill-opacity="1" fill-rule="nonzero"/><path fill="#211c1d" d="M 120.621094 323.3125 L 103.308594 323.3125 L 103.308594 329.304688 L 96.445312 330.140625 L 94.964844 330.316406 L 93.894531 331.34375 L 81.125 343.5625 L 43.792969 304.328125 L 12.714844 336.988281 L 43.792969 298.304688 L 105.707031 306.566406 L 105.707031 314.132812 L 108.964844 317.554688 L 108.964844 300.234375 L 119.152344 300.234375 L 119.152344 306.84375 L 132.277344 308.492188 L 148.785156 324.292969 L 120.621094 328.226562 L 120.621094 323.3125 " fill-opacity="1" fill-rule="nonzero"/><path fill="#4c9ada" d="M 35.265625 342.351562 L 35.265625 344.273438 L 42.308594 344.273438 L 42.308594 335.308594 C 38.421875 335.308594 35.265625 338.460938 35.265625 342.351562 " fill-opacity="1" fill-rule="nonzero"/><path fill="#4c9ada" d="M 45.085938 335.308594 L 45.085938 344.273438 L 52.128906 344.273438 L 52.128906 342.351562 C 52.128906 338.460938 48.972656 335.308594 45.085938 335.308594 " fill-opacity="1" fill-rule="nonzero"/><path fill="#4c9ada" d="M 35.265625 354.082031 L 42.308594 354.082031 L 42.308594 347.039062 L 35.265625 347.039062 L 35.265625 354.082031 " fill-opacity="1" fill-rule="nonzero"/><path fill="#4c9ada" d="M 45.085938 354.082031 L 52.128906 354.082031 L 52.128906 347.039062 L 45.085938 347.039062 L 45.085938 354.082031 " fill-opacity="1" fill-rule="nonzero"/><g clip-path="url(#19271e945c)"><path fill="#211c1d" d="M 203.507812 374.929688 L 178.1875 353.410156 L 167.488281 344.3125 C 164.246094 346.964844 159.429688 350.425781 155.167969 353.410156 C 150.234375 356.859375 146.03125 359.667969 145.828125 359.835938 L 151.945312 353.410156 L 162.953125 341.839844 L 164.933594 339.753906 L 167.488281 337.074219 L 170.160156 339.882812 L 203.507812 374.929688 " fill-opacity="1" fill-rule="nonzero"/></g><path fill="#4c9ada" d="M 193.046875 358.007812 L 167.488281 331.144531 L 161.984375 336.929688 L 146.304688 353.410156 L 129.078125 371.511719 L 58.394531 371.511719 L 84.207031 346.800781 L 96.980469 334.574219 L 107.777344 333.261719 L 107.777344 327.777344 L 116.152344 327.777344 L 116.152344 342.027344 L 118.832031 339.210938 L 118.832031 332.984375 L 152.894531 328.230469 L 167.488281 326.191406 L 193.046875 358.007812 " fill-opacity="1" fill-rule="nonzero"/><path fill="#211c1d" d="M 174.5 362.417969 L 174.5 363.996094 L 168.707031 363.996094 L 168.707031 356.625 C 171.90625 356.625 174.5 359.21875 174.5 362.417969 " fill-opacity="1" fill-rule="nonzero"/><path fill="#211c1d" d="M 166.425781 356.625 L 166.425781 363.996094 L 160.632812 363.996094 L 160.632812 362.417969 C 160.632812 359.21875 163.226562 356.625 166.425781 356.625 " fill-opacity="1" fill-rule="nonzero"/><path fill="#211c1d" d="M 174.5 372.0625 L 168.707031 372.0625 L 168.707031 366.273438 L 174.5 366.273438 L 174.5 372.0625 " fill-opacity="1" fill-rule="nonzero"/><path fill="#211c1d" d="M 166.425781 372.0625 L 160.632812 372.0625 L 160.632812 366.273438 L 166.425781 366.273438 L 166.425781 372.0625 " fill-opacity="1" fill-rule="nonzero"/><path fill="#211c1d" d="M 82.882812 299.011719 L 83.640625 299.324219 L 83.640625 299.117188 Z M 82.882812 299.011719 " fill-opacity="1" fill-rule="nonzero"/><g clip-path="url(#664f0e26d6)"><path fill="#41d1ff" d="M 156.996094 229.882812 C 156.988281 231.265625 157.082031 232.644531 157.277344 234.015625 C 157.46875 235.382812 157.761719 236.734375 158.148438 238.0625 C 158.535156 239.390625 159.015625 240.683594 159.585938 241.945312 C 160.160156 243.203125 160.820312 244.417969 161.570312 245.582031 C 162.316406 246.746094 163.144531 247.851562 164.050781 248.894531 C 164.957031 249.941406 165.933594 250.914062 166.984375 251.820312 C 168.03125 252.726562 169.136719 253.550781 170.300781 254.296875 C 171.46875 255.042969 172.679688 255.699219 173.941406 256.269531 L 173.941406 324.300781 C 173.941406 324.96875 174.179688 325.539062 174.652344 326.011719 L 184.335938 335.695312 C 184.5625 335.921875 184.824219 336.097656 185.121094 336.21875 C 185.417969 336.34375 185.726562 336.40625 186.046875 336.40625 C 186.367188 336.40625 186.675781 336.34375 186.972656 336.21875 C 187.269531 336.097656 187.53125 335.921875 187.757812 335.695312 L 197.441406 326.011719 C 197.914062 325.539062 198.152344 324.96875 198.152344 324.300781 L 198.152344 314.617188 C 198.152344 313.949219 197.914062 313.375 197.441406 312.902344 L 191.890625 307.351562 L 197.441406 301.800781 C 197.667969 301.574219 197.84375 301.3125 197.96875 301.015625 C 198.089844 300.71875 198.152344 300.410156 198.152344 300.089844 C 198.152344 299.769531 198.089844 299.460938 197.96875 299.164062 C 197.84375 298.867188 197.667969 298.605469 197.441406 298.378906 L 191.890625 292.828125 L 197.441406 287.277344 C 197.667969 287.050781 197.84375 286.789062 197.96875 286.492188 C 198.089844 286.195312 198.152344 285.886719 198.152344 285.566406 C 198.152344 285.242188 198.089844 284.933594 197.96875 284.636719 C 197.84375 284.339844 197.667969 284.078125 197.441406 283.851562 L 191.890625 278.300781 L 197.441406 272.75 C 197.914062 272.277344 198.152344 271.707031 198.152344 271.039062 L 198.152344 256.269531 C 198.9375 255.910156 199.703125 255.515625 200.453125 255.085938 C 201.207031 254.65625 201.933594 254.195312 202.644531 253.703125 C 203.351562 253.207031 204.039062 252.683594 204.703125 252.128906 C 205.363281 251.574219 206 250.988281 206.609375 250.375 C 207.21875 249.765625 207.800781 249.125 208.355469 248.460938 C 208.90625 247.796875 209.429688 247.109375 209.921875 246.398438 C 210.414062 245.6875 210.875 244.957031 211.300781 244.207031 C 211.726562 243.453125 212.117188 242.683594 212.476562 241.898438 C 212.835938 241.109375 213.15625 240.308594 213.441406 239.496094 C 213.730469 238.679688 213.976562 237.851562 214.191406 237.015625 C 214.402344 236.175781 214.578125 235.332031 214.714844 234.476562 C 214.851562 233.625 214.949219 232.765625 215.011719 231.90625 C 215.070312 231.042969 215.09375 230.179688 215.078125 229.316406 C 215.058594 228.449219 215.003906 227.589844 214.910156 226.730469 C 214.816406 225.871094 214.6875 225.015625 214.515625 224.167969 C 214.347656 223.324219 214.140625 222.484375 213.894531 221.65625 C 213.652344 220.824219 213.371094 220.007812 213.050781 219.207031 C 212.734375 218.402344 212.382812 217.613281 211.992188 216.839844 C 211.605469 216.070312 211.183594 215.316406 210.730469 214.582031 C 210.273438 213.84375 209.789062 213.132812 209.269531 212.441406 C 208.75 211.75 208.203125 211.082031 207.625 210.441406 C 207.042969 209.796875 206.4375 209.183594 205.804688 208.59375 C 205.171875 208.007812 204.515625 207.449219 203.832031 206.917969 C 203.148438 206.390625 202.441406 205.890625 201.714844 205.425781 C 200.988281 204.957031 200.242188 204.523438 199.472656 204.125 C 198.707031 203.726562 197.925781 203.359375 197.125 203.03125 C 196.328125 202.699219 195.515625 202.40625 194.691406 202.148438 C 193.867188 201.890625 193.03125 201.671875 192.1875 201.488281 C 191.339844 201.304688 190.488281 201.160156 189.632812 201.054688 C 188.773438 200.945312 187.914062 200.878906 187.050781 200.847656 C 186.1875 200.816406 185.324219 200.824219 184.460938 200.875 C 183.597656 200.921875 182.738281 201.003906 181.882812 201.128906 C 181.027344 201.253906 180.179688 201.414062 179.335938 201.613281 C 178.496094 201.8125 177.667969 202.050781 176.847656 202.324219 C 176.027344 202.597656 175.21875 202.90625 174.429688 203.25 C 173.636719 203.597656 172.859375 203.976562 172.101562 204.390625 C 171.34375 204.808594 170.605469 205.253906 169.886719 205.734375 C 169.167969 206.214844 168.472656 206.726562 167.800781 207.269531 C 167.128906 207.8125 166.480469 208.386719 165.859375 208.984375 C 165.238281 209.585938 164.644531 210.214844 164.078125 210.867188 C 163.511719 211.519531 162.976562 212.199219 162.472656 212.898438 C 161.96875 213.601562 161.492188 214.324219 161.054688 215.066406 C 160.613281 215.808594 160.207031 216.570312 159.832031 217.351562 C 159.460938 218.132812 159.125 218.925781 158.820312 219.734375 C 158.519531 220.546875 158.253906 221.367188 158.027344 222.203125 C 157.796875 223.035156 157.609375 223.878906 157.453125 224.726562 C 157.300781 225.578125 157.1875 226.433594 157.109375 227.296875 C 157.03125 228.15625 156.996094 229.019531 156.996094 229.882812 Z M 193.308594 217.777344 C 193.308594 218.253906 193.261719 218.726562 193.167969 219.195312 C 193.078125 219.664062 192.9375 220.117188 192.757812 220.558594 C 192.574219 220.996094 192.351562 221.417969 192.085938 221.8125 C 191.820312 222.210938 191.519531 222.578125 191.183594 222.914062 C 190.84375 223.25 190.476562 223.550781 190.082031 223.816406 C 189.683594 224.082031 189.265625 224.304688 188.824219 224.488281 C 188.386719 224.671875 187.929688 224.808594 187.464844 224.902344 C 186.996094 224.996094 186.523438 225.039062 186.046875 225.039062 C 185.570312 225.039062 185.097656 224.996094 184.628906 224.902344 C 184.160156 224.808594 183.707031 224.671875 183.265625 224.488281 C 182.828125 224.304688 182.40625 224.082031 182.011719 223.816406 C 181.613281 223.550781 181.25 223.25 180.910156 222.914062 C 180.574219 222.578125 180.273438 222.210938 180.007812 221.8125 C 179.742188 221.417969 179.519531 220.996094 179.335938 220.558594 C 179.152344 220.117188 179.015625 219.664062 178.921875 219.195312 C 178.832031 218.726562 178.785156 218.253906 178.785156 217.777344 C 178.785156 217.300781 178.832031 216.828125 178.921875 216.359375 C 179.015625 215.894531 179.152344 215.4375 179.335938 215 C 179.519531 214.558594 179.742188 214.140625 180.007812 213.742188 C 180.273438 213.347656 180.574219 212.980469 180.910156 212.640625 C 181.25 212.304688 181.613281 212.003906 182.011719 211.738281 C 182.40625 211.472656 182.828125 211.25 183.265625 211.066406 C 183.707031 210.886719 184.160156 210.746094 184.628906 210.65625 C 185.097656 210.5625 185.570312 210.515625 186.046875 210.515625 C 186.523438 210.515625 186.996094 210.5625 187.460938 210.65625 C 187.929688 210.75 188.382812 210.886719 188.824219 211.070312 C 189.265625 211.253906 189.683594 211.476562 190.078125 211.742188 C 190.476562 212.007812 190.84375 212.308594 191.179688 212.644531 C 191.515625 212.980469 191.816406 213.347656 192.082031 213.746094 C 192.347656 214.140625 192.570312 214.558594 192.753906 215 C 192.9375 215.441406 193.074219 215.894531 193.167969 216.363281 C 193.261719 216.828125 193.308594 217.300781 193.308594 217.777344 Z M 193.308594 217.777344 " fill-opacity="1" fill-rule="nonzero"/></g><g fill="#55b1e7" fill-opacity="1"><g transform="translate(59.648438, 60.806659)"><g><path d="M 28.46875 0 L 3.828125 0 L 3.828125 -34.328125 L 29 -34.328125 C 33.46875 -34.328125 37.144531 -34.125 40.03125 -33.71875 C 42.914062 -33.3125 45.140625 -32.671875 46.703125 -31.796875 C 48.273438 -30.929688 49.335938 -29.828125 49.890625 -28.484375 C 50.453125 -27.148438 50.734375 -25.546875 50.734375 -23.671875 C 50.679688 -22.203125 50.273438 -20.984375 49.515625 -20.015625 C 48.765625 -19.054688 47.878906 -18.34375 46.859375 -17.875 C 45.847656 -17.40625 44.957031 -17.171875 44.1875 -17.171875 C 44.945312 -17.171875 45.828125 -17.019531 46.828125 -16.71875 C 47.835938 -16.425781 48.816406 -16 49.765625 -15.4375 C 50.710938 -14.882812 51.5 -14.207031 52.125 -13.40625 C 52.757812 -12.601562 53.078125 -11.691406 53.078125 -10.671875 C 53.078125 -9.335938 52.921875 -8.109375 52.609375 -6.984375 C 52.296875 -5.867188 51.671875 -4.878906 50.734375 -4.015625 C 49.804688 -3.160156 48.429688 -2.429688 46.609375 -1.828125 C 44.796875 -1.234375 42.414062 -0.78125 39.46875 -0.46875 C 36.519531 -0.15625 32.851562 0 28.46875 0 Z M 27.65625 -20.109375 C 29.757812 -20.109375 31.390625 -20.210938 32.546875 -20.421875 C 33.703125 -20.628906 34.503906 -20.941406 34.953125 -21.359375 C 35.398438 -21.785156 35.625 -22.328125 35.625 -22.984375 C 35.625 -23.648438 35.398438 -24.191406 34.953125 -24.609375 C 34.503906 -25.035156 33.703125 -25.347656 32.546875 -25.546875 C 31.390625 -25.753906 29.757812 -25.859375 27.65625 -25.859375 L 18.25 -25.859375 L 18.25 -20.109375 Z M 27.65625 -8.46875 C 29.8125 -8.46875 31.554688 -8.523438 32.890625 -8.640625 C 34.234375 -8.753906 35.21875 -9.007812 35.84375 -9.40625 C 36.46875 -9.800781 36.78125 -10.445312 36.78125 -11.34375 C 36.78125 -12.238281 36.46875 -12.890625 35.84375 -13.296875 C 35.21875 -13.703125 34.234375 -13.957031 32.890625 -14.0625 C 31.554688 -14.164062 29.8125 -14.21875 27.65625 -14.21875 L 18.25 -14.21875 L 18.25 -8.46875 Z M 27.65625 -8.46875 "/></g></g></g><g fill="#55b1e7" fill-opacity="1"><g transform="translate(114.627865, 60.806659)"><g><path d="M 25.96875 0.734375 C 17.476562 0.734375 11.234375 -1.007812 7.234375 -4.5 C 3.691406 -7.59375 1.921875 -11.816406 1.921875 -17.171875 C 1.921875 -22.492188 3.691406 -26.707031 7.234375 -29.8125 C 11.234375 -33.300781 17.476562 -35.046875 25.96875 -35.046875 C 34.46875 -35.046875 40.71875 -33.300781 44.71875 -29.8125 C 48.257812 -26.707031 50.03125 -22.492188 50.03125 -17.171875 C 50.03125 -11.816406 48.257812 -7.59375 44.71875 -4.5 C 40.71875 -1.007812 34.46875 0.734375 25.96875 0.734375 Z M 25.96875 -8.46875 C 29.445312 -8.46875 32.003906 -9.46875 33.640625 -11.46875 C 34.941406 -13.082031 35.59375 -14.984375 35.59375 -17.171875 C 35.59375 -19.359375 34.941406 -21.25 33.640625 -22.84375 C 32.003906 -24.851562 29.445312 -25.859375 25.96875 -25.859375 C 22.488281 -25.859375 19.929688 -24.851562 18.296875 -22.84375 C 16.984375 -21.25 16.328125 -19.359375 16.328125 -17.171875 C 16.328125 -14.984375 16.984375 -13.082031 18.296875 -11.46875 C 19.929688 -9.46875 22.488281 -8.46875 25.96875 -8.46875 Z M 25.96875 -8.46875 "/></g></g></g><g fill="#55b1e7" fill-opacity="1"><g transform="translate(166.567502, 60.806659)"><g><path d="M 22.703125 0.734375 C 18.054688 0.734375 14.3125 0.238281 11.46875 -0.75 C 8.625 -1.75 6.457031 -3.125 4.96875 -4.875 C 3.488281 -6.625 2.492188 -8.640625 1.984375 -10.921875 L 17.28125 -10.921875 C 18.414062 -9.285156 20.222656 -8.46875 22.703125 -8.46875 C 25.171875 -8.46875 26.972656 -9.285156 28.109375 -10.921875 C 28.203125 -11.078125 28.25 -11.21875 28.25 -11.34375 C 28.25 -11.78125 27.675781 -12.101562 26.53125 -12.3125 C 25.394531 -12.53125 23.691406 -12.695312 21.421875 -12.8125 C 18.566406 -12.9375 15.566406 -13.238281 12.421875 -13.71875 C 5.421875 -14.800781 1.921875 -17.617188 1.921875 -22.171875 C 1.921875 -22.554688 1.941406 -22.960938 1.984375 -23.390625 C 2.492188 -25.671875 3.488281 -27.6875 4.96875 -29.4375 C 6.457031 -31.1875 8.625 -32.554688 11.46875 -33.546875 C 14.3125 -34.546875 18.054688 -35.046875 22.703125 -35.046875 C 27.335938 -35.046875 31.078125 -34.546875 33.921875 -33.546875 C 36.765625 -32.554688 38.925781 -31.1875 40.40625 -29.4375 C 41.894531 -27.6875 42.894531 -25.671875 43.40625 -23.390625 L 28.109375 -23.390625 C 26.972656 -25.015625 25.171875 -25.828125 22.703125 -25.828125 C 20.222656 -25.828125 18.414062 -25.015625 17.28125 -23.390625 C 17.207031 -23.265625 17.171875 -23.144531 17.171875 -23.03125 C 17.171875 -22.644531 17.71875 -22.359375 18.8125 -22.171875 C 19.90625 -21.992188 21.515625 -21.835938 23.640625 -21.703125 C 25.773438 -21.578125 28.046875 -21.367188 30.453125 -21.078125 C 32.859375 -20.796875 35.109375 -20.300781 37.203125 -19.59375 C 39.304688 -18.882812 40.953125 -17.835938 42.140625 -16.453125 C 43.066406 -15.378906 43.53125 -14.019531 43.53125 -12.375 C 43.53125 -11.914062 43.488281 -11.429688 43.40625 -10.921875 C 42.894531 -8.640625 41.894531 -6.625 40.40625 -4.875 C 38.925781 -3.125 36.765625 -1.75 33.921875 -0.75 C 31.078125 0.238281 27.335938 0.734375 22.703125 0.734375 Z M 22.703125 0.734375 "/></g></g></g><g fill="#55b1e7" fill-opacity="1"><g transform="translate(211.996732, 60.806659)"><g><path d="M 25.96875 0.734375 C 17.476562 0.734375 11.234375 -1.007812 7.234375 -4.5 C 3.691406 -7.582031 1.921875 -11.796875 1.921875 -17.140625 C 1.921875 -22.484375 3.691406 -26.707031 7.234375 -29.8125 C 11.234375 -33.289062 17.476562 -35.03125 25.96875 -35.03125 C 30.957031 -35.03125 35.078125 -34.457031 38.328125 -33.3125 C 41.585938 -32.175781 44.117188 -30.617188 45.921875 -28.640625 C 47.722656 -26.660156 48.921875 -24.390625 49.515625 -21.828125 L 34.359375 -21.828125 C 32.835938 -24.492188 30.039062 -25.828125 25.96875 -25.828125 C 22.488281 -25.828125 19.929688 -24.820312 18.296875 -22.8125 C 16.984375 -21.21875 16.328125 -19.328125 16.328125 -17.140625 C 16.328125 -14.953125 16.984375 -13.0625 18.296875 -11.46875 C 19.929688 -9.457031 22.488281 -8.453125 25.96875 -8.453125 C 30.039062 -8.453125 32.835938 -9.789062 34.359375 -12.46875 L 49.515625 -12.46875 C 48.921875 -9.90625 47.722656 -7.632812 45.921875 -5.65625 C 44.117188 -3.675781 41.585938 -2.113281 38.328125 -0.96875 C 35.078125 0.164062 30.957031 0.734375 25.96875 0.734375 Z M 25.96875 0.734375 "/></g></g></g><g fill="#55b1e7" fill-opacity="1"><g transform="translate(263.409792, 60.806659)"><g><path d="M 25.96875 0.734375 C 17.476562 0.734375 11.234375 -1.007812 7.234375 -4.5 C 3.691406 -7.59375 1.921875 -11.816406 1.921875 -17.171875 C 1.921875 -22.492188 3.691406 -26.707031 7.234375 -29.8125 C 11.234375 -33.300781 17.476562 -35.046875 25.96875 -35.046875 C 34.46875 -35.046875 40.71875 -33.300781 44.71875 -29.8125 C 48.257812 -26.707031 50.03125 -22.492188 50.03125 -17.171875 C 50.03125 -11.816406 48.257812 -7.59375 44.71875 -4.5 C 40.71875 -1.007812 34.46875 0.734375 25.96875 0.734375 Z M 25.96875 -8.46875 C 29.445312 -8.46875 32.003906 -9.46875 33.640625 -11.46875 C 34.941406 -13.082031 35.59375 -14.984375 35.59375 -17.171875 C 35.59375 -19.359375 34.941406 -21.25 33.640625 -22.84375 C 32.003906 -24.851562 29.445312 -25.859375 25.96875 -25.859375 C 22.488281 -25.859375 19.929688 -24.851562 18.296875 -22.84375 C 16.984375 -21.25 16.328125 -19.359375 16.328125 -17.171875 C 16.328125 -14.984375 16.984375 -13.082031 18.296875 -11.46875 C 19.929688 -9.46875 22.488281 -8.46875 25.96875 -8.46875 Z M 25.96875 -8.46875 "/></g></g></g><g fill="#55b1e7" fill-opacity="1"><g transform="translate(32.578127, 129.056654)"><g><path d="M 18.25 0 L 3.828125 0 L 3.828125 -34.359375 L 18.25 -34.359375 Z M 18.25 0 "/></g></g></g><g fill="#55b1e7" fill-opacity="1"><g transform="translate(54.646489, 129.056654)"><g><path d="M 69.140625 0 L 54.734375 0 L 54.734375 -21.90625 L 41.84375 0 L 31.09375 0 L 18.25 -21.90625 L 18.25 0 L 3.828125 0 L 3.828125 -34.359375 L 20.953125 -34.359375 L 36.484375 -9.8125 L 52 -34.359375 L 69.140625 -34.359375 Z M 69.140625 0 "/></g></g></g><g fill="#55b1e7" fill-opacity="1"><g transform="translate(127.601333, 129.056654)"><g><path d="M 25.96875 0.734375 C 17.476562 0.734375 11.234375 -1.007812 7.234375 -4.5 C 3.691406 -7.582031 1.921875 -11.796875 1.921875 -17.140625 C 1.921875 -22.484375 3.691406 -26.707031 7.234375 -29.8125 C 11.234375 -33.300781 17.476562 -35.046875 25.96875 -35.046875 C 34.46875 -35.046875 40.71875 -33.300781 44.71875 -29.8125 C 48.257812 -26.707031 50.03125 -22.484375 50.03125 -17.140625 C 50.03125 -11.796875 48.257812 -7.582031 44.71875 -4.5 C 40.71875 -1.007812 34.46875 0.734375 25.96875 0.734375 Z M 25.96875 -8.453125 C 29.445312 -8.453125 32.003906 -9.457031 33.640625 -11.46875 C 34.941406 -13.0625 35.59375 -14.953125 35.59375 -17.140625 C 35.59375 -19.328125 34.941406 -21.226562 33.640625 -22.84375 C 32.003906 -24.832031 29.445312 -25.828125 25.96875 -25.828125 C 22.488281 -25.828125 19.929688 -24.832031 18.296875 -22.84375 C 16.984375 -21.226562 16.328125 -19.328125 16.328125 -17.140625 C 16.328125 -14.953125 16.984375 -13.0625 18.296875 -11.46875 C 19.929688 -9.457031 22.488281 -8.453125 25.96875 -8.453125 Z M 29 -37.421875 L 22.953125 -37.421875 L 26.078125 -45.9375 L 36.125 -45.9375 Z M 29 -37.421875 "/></g></g></g><g fill="#55b1e7" fill-opacity="1"><g transform="translate(175.231914, 129.056654)"><g><path d="M 32.984375 0 L 19.609375 0 L 0.359375 -34.328125 L 14.96875 -34.328125 L 26.3125 -9.796875 L 37.640625 -34.328125 L 52.234375 -34.328125 Z M 32.984375 0 "/></g></g></g><g fill="#55b1e7" fill-opacity="1"><g transform="translate(227.817799, 129.056654)"><g><path d="M 45.203125 0 L 3.828125 0 L 3.828125 -34.359375 L 43.3125 -34.359375 L 43.3125 -25.859375 L 18.25 -25.859375 L 18.25 -20.46875 L 39.4375 -20.46875 L 39.4375 -13.859375 L 18.25 -13.859375 L 18.25 -8.5 L 45.203125 -8.5 Z M 45.203125 0 "/></g></g></g><g fill="#55b1e7" fill-opacity="1"><g transform="translate(274.922501, 129.056654)"><g><path d="M 18.25 0 L 3.828125 0 L 3.828125 -34.359375 L 18.25 -34.359375 Z M 18.25 0 "/></g></g></g><g fill="#55b1e7" fill-opacity="1"><g transform="translate(296.990875, 129.056654)"><g><path d="M 22.703125 0.734375 C 18.054688 0.734375 14.3125 0.238281 11.46875 -0.75 C 8.625 -1.75 6.457031 -3.125 4.96875 -4.875 C 3.488281 -6.625 2.492188 -8.640625 1.984375 -10.921875 L 17.28125 -10.921875 C 18.414062 -9.285156 20.222656 -8.46875 22.703125 -8.46875 C 25.171875 -8.46875 26.972656 -9.285156 28.109375 -10.921875 C 28.203125 -11.078125 28.25 -11.21875 28.25 -11.34375 C 28.25 -11.78125 27.675781 -12.101562 26.53125 -12.3125 C 25.394531 -12.53125 23.691406 -12.695312 21.421875 -12.8125 C 18.566406 -12.9375 15.566406 -13.238281 12.421875 -13.71875 C 5.421875 -14.800781 1.921875 -17.617188 1.921875 -22.171875 C 1.921875 -22.554688 1.941406 -22.960938 1.984375 -23.390625 C 2.492188 -25.671875 3.488281 -27.6875 4.96875 -29.4375 C 6.457031 -31.1875 8.625 -32.554688 11.46875 -33.546875 C 14.3125 -34.546875 18.054688 -35.046875 22.703125 -35.046875 C 27.335938 -35.046875 31.078125 -34.546875 33.921875 -33.546875 C 36.765625 -32.554688 38.925781 -31.1875 40.40625 -29.4375 C 41.894531 -27.6875 42.894531 -25.671875 43.40625 -23.390625 L 28.109375 -23.390625 C 26.972656 -25.015625 25.171875 -25.828125 22.703125 -25.828125 C 20.222656 -25.828125 18.414062 -25.015625 17.28125 -23.390625 C 17.207031 -23.265625 17.171875 -23.144531 17.171875 -23.03125 C 17.171875 -22.644531 17.71875 -22.359375 18.8125 -22.171875 C 19.90625 -21.992188 21.515625 -21.835938 23.640625 -21.703125 C 25.773438 -21.578125 28.046875 -21.367188 30.453125 -21.078125 C 32.859375 -20.796875 35.109375 -20.300781 37.203125 -19.59375 C 39.304688 -18.882812 40.953125 -17.835938 42.140625 -16.453125 C 43.066406 -15.378906 43.53125 -14.019531 43.53125 -12.375 C 43.53125 -11.914062 43.488281 -11.429688 43.40625 -10.921875 C 42.894531 -8.640625 41.894531 -6.625 40.40625 -4.875 C 38.925781 -3.125 36.765625 -1.75 33.921875 -0.75 C 31.078125 0.238281 27.335938 0.734375 22.703125 0.734375 Z M 22.703125 0.734375 "/></g></g></g><g clip-path="url(#2a525c741d)"><g clip-path="url(#8907f67363)"><g transform="matrix(1, 0, 0, 1, 9, 139)"><g clip-path="url(#e4861c33a1)"><g clip-path="url(#677d8cff3c)"><g clip-path="url(#3af2a0e8e2)"><path fill="#41d1ff" d="M 0.015625 0.523438 L 356.992188 0.523438 L 356.992188 4.628906 L 0.015625 4.628906 Z M 0.015625 0.523438 " fill-opacity="1" fill-rule="nonzero"/></g></g></g></g></g></g><g clip-path="url(#c9a2936310)"><g transform="matrix(1, 0, 0, 1, 171, 159)"><g clip-path="url(#7d0476735b)"><path fill="#55b1e7" d="M 37.957031 114.511719 L 67.660156 93.542969 L 67.660156 90.433594 L 37.957031 111.402344 Z M 37.957031 121.78125 L 67.660156 100.8125 L 67.660156 97.707031 L 37.957031 118.671875 Z M 37.957031 129.050781 L 67.660156 108.085938 L 67.660156 104.976562 L 37.957031 125.941406 Z M 37.957031 136.320312 L 67.660156 115.351562 L 67.660156 112.242188 L 37.957031 133.210938 Z M 37.957031 143.589844 L 67.660156 122.621094 L 67.660156 119.515625 L 37.957031 140.484375 Z M 37.957031 150.859375 L 67.660156 129.894531 L 67.660156 126.78125 L 37.957031 147.75 Z M 37.957031 158.128906 L 67.660156 137.160156 L 67.660156 134.050781 L 37.957031 155.019531 Z M 67.660156 83.929688 L 74.074219 87.625 L 74.074219 144.695312 L 71.15625 145.058594 L 69.691406 145.246094 L 68.625 146.269531 L 62.085938 152.523438 L 45.847656 163.988281 L 40.925781 163.300781 L 67.660156 144.429688 L 67.660156 141.324219 L 37.957031 162.289062 L 37.957031 162.882812 L 37.121094 162.769531 L 34.609375 162.417969 L 34.261719 162.847656 L 34.261719 107.507812 Z M 80.082031 91.089844 L 80.082031 114.75 L 81.726562 114.75 L 81.726562 92.035156 L 87.464844 95.347656 L 87.464844 132.339844 L 88.613281 132.339844 L 88.613281 96.007812 L 92.355469 98.160156 L 92.355469 136.765625 L 80.371094 136.765625 L 80.371094 143.902344 L 76.476562 144.390625 L 76.476562 89.007812 L 80.082031 91.089844 " fill-opacity="1" fill-rule="nonzero"/><path fill="#211c1d" d="M 95.640625 181.953125 L 95.320312 182.238281 L 95.320312 184.804688 L 95.640625 184.523438 L 96.824219 183.472656 L 96.824219 180.90625 L 95.640625 181.953125 " fill-opacity="1" fill-rule="nonzero"/><g clip-path="url(#df88278a8a)"><path fill="#3672c1" d="M 72.640625 51.125 L 79.84375 44.746094 L 79.84375 30.515625 L 72.640625 36.894531 Z M 72.640625 67.921875 L 79.84375 61.546875 L 79.84375 47.316406 L 72.640625 53.695312 Z M 81.136719 43.601562 L 85.816406 39.460938 L 88.339844 37.226562 L 88.339844 22.996094 L 85.816406 25.230469 L 81.136719 29.371094 Z M 81.136719 60.402344 L 85.816406 56.261719 L 88.339844 54.027344 L 88.339844 39.796875 L 85.816406 42.027344 L 81.136719 46.167969 Z M 81.136719 77.203125 L 85.816406 73.058594 L 88.339844 70.828125 L 88.339844 56.597656 L 85.816406 58.832031 L 81.136719 62.96875 Z M 89.628906 36.082031 L 90.726562 35.109375 L 95.640625 30.765625 L 96.832031 29.710938 L 96.832031 15.484375 L 95.640625 16.535156 L 90.726562 20.882812 L 89.628906 21.851562 Z M 89.628906 52.882812 L 90.726562 51.910156 L 95.640625 47.5625 L 96.832031 46.507812 L 96.832031 32.277344 L 95.640625 33.332031 L 90.726562 37.679688 L 89.628906 38.648438 Z M 89.628906 69.679688 L 90.726562 68.710938 L 95.640625 64.363281 L 96.832031 63.308594 L 96.832031 49.078125 L 95.640625 50.132812 L 90.726562 54.480469 L 89.628906 55.449219 Z M 89.628906 86.480469 L 90.726562 85.511719 L 95.640625 81.164062 L 96.832031 80.109375 L 96.832031 65.878906 L 95.640625 66.933594 L 90.726562 71.28125 L 89.628906 72.25 Z M 98.128906 28.5625 L 100.554688 26.417969 L 104.84375 22.621094 L 105.328125 22.191406 L 105.328125 7.960938 L 104.84375 8.394531 L 100.554688 12.1875 L 98.128906 14.335938 Z M 98.128906 45.363281 L 100.554688 43.21875 L 104.84375 39.417969 L 105.328125 38.992188 L 105.328125 24.757812 L 104.84375 25.191406 L 100.554688 28.984375 L 98.128906 31.136719 Z M 98.128906 62.164062 L 100.554688 60.015625 L 104.84375 56.21875 L 105.328125 55.789062 L 105.328125 41.558594 L 104.84375 41.992188 L 100.554688 45.785156 L 98.128906 47.933594 Z M 98.128906 78.964844 L 100.554688 76.8125 L 104.84375 73.015625 L 105.328125 72.589844 L 105.328125 58.355469 L 104.84375 58.789062 L 100.554688 62.582031 L 98.128906 64.730469 Z M 98.128906 95.761719 L 100.554688 93.609375 L 104.84375 89.816406 L 105.328125 89.386719 L 105.328125 75.152344 L 104.84375 75.585938 L 100.554688 79.382812 L 98.128906 81.527344 Z M 98.128906 112.558594 L 100.554688 110.410156 L 104.84375 106.617188 L 105.328125 106.183594 L 105.328125 91.953125 L 104.84375 92.382812 L 100.554688 96.175781 L 98.128906 98.328125 Z M 98.128906 129.359375 L 100.554688 127.207031 L 104.84375 123.414062 L 105.328125 122.980469 L 105.328125 108.753906 L 104.84375 109.183594 L 100.554688 112.980469 L 98.128906 115.128906 Z M 72.492188 32.464844 L 81.207031 24.75 L 86.117188 20.402344 L 95.945312 11.707031 L 100.855469 7.355469 L 105.144531 3.5625 L 108.695312 0.417969 L 137.511719 21.234375 L 137.511719 53.359375 L 117.671875 61.425781 L 115.824219 62.175781 L 115.824219 140.71875 L 102.222656 142.535156 L 104.84375 140.214844 L 105.328125 139.78125 L 105.328125 125.554688 L 104.84375 125.984375 L 100.554688 129.777344 L 98.128906 131.929688 L 98.128906 136.765625 L 96.832031 136.765625 L 96.832031 133.074219 L 96.824219 133.082031 L 96.824219 130.507812 L 96.832031 130.503906 L 96.832031 116.273438 L 96.824219 116.28125 L 96.824219 113.710938 L 96.832031 113.707031 L 96.832031 99.472656 L 96.824219 99.480469 L 96.824219 96.914062 L 96.832031 96.90625 L 96.832031 82.675781 L 95.640625 83.730469 L 90.726562 88.074219 L 89.628906 89.046875 L 89.628906 91.4375 L 88.339844 90.691406 L 88.339844 90.191406 L 87.996094 90.496094 L 86.242188 89.484375 L 88.339844 87.625 L 88.339844 73.394531 L 85.816406 75.628906 L 81.136719 79.769531 L 81.136719 86.539062 L 79.84375 85.792969 L 79.84375 80.914062 L 76.503906 83.871094 L 76.304688 83.753906 L 74.75 82.855469 L 79.84375 78.347656 L 79.84375 64.117188 L 72.640625 70.496094 L 72.640625 81.644531 L 70.359375 80.328125 L 70.359375 34.355469 L 72.492188 32.464844 " fill-opacity="1" fill-rule="nonzero"/></g><path fill="#55b1e7" d="M 170.21875 74.960938 L 145.28125 61.027344 L 145.28125 66.699219 L 142.496094 64.722656 L 120.347656 73.730469 L 120.347656 65.730469 L 144.6875 55.832031 L 170.21875 74.960938 " fill-opacity="1" fill-rule="nonzero"/><path fill="#55b1e7" d="M 170.21875 88.28125 L 145.28125 74.347656 L 145.28125 80.015625 L 142.496094 78.042969 L 120.347656 87.050781 L 120.347656 79.050781 L 144.6875 69.148438 L 170.21875 88.28125 " fill-opacity="1" fill-rule="nonzero"/><path fill="#55b1e7" d="M 170.21875 101.601562 L 145.28125 87.664062 L 145.28125 93.335938 L 142.496094 91.359375 L 120.347656 100.367188 L 120.347656 92.367188 L 144.6875 82.46875 L 170.21875 101.601562 " fill-opacity="1" fill-rule="nonzero"/><path fill="#55b1e7" d="M 170.21875 114.917969 L 145.28125 100.984375 L 145.28125 106.652344 L 142.496094 104.679688 L 120.347656 113.6875 L 120.347656 105.6875 L 144.6875 95.789062 L 170.21875 114.917969 " fill-opacity="1" fill-rule="nonzero"/><path fill="#55b1e7" d="M 170.21875 128.238281 L 145.28125 114.304688 L 145.28125 119.972656 L 142.496094 117.996094 L 120.347656 127.003906 L 120.347656 119.003906 L 144.6875 109.105469 L 170.21875 128.238281 " fill-opacity="1" fill-rule="nonzero"/><path fill="#55b1e7" d="M 170.21875 141.554688 L 163.980469 136.878906 L 165.710938 139.039062 Z M 170.21875 141.554688 " fill-opacity="1" fill-rule="nonzero"/><path fill="#55b1e7" d="M 120.347656 132.320312 L 120.347656 140.324219 L 121.109375 140.011719 L 142.5 131.316406 L 145.28125 133.292969 L 145.28125 127.621094 L 158.523438 135.019531 L 159.605469 134.875 L 161.046875 134.683594 L 144.6875 122.425781 L 120.347656 132.320312 " fill-opacity="1" fill-rule="nonzero"/><path fill="#55b1e7" d="M 140.574219 137.414062 L 145.960938 136.695312 L 144.6875 135.742188 Z M 140.574219 137.414062 " fill-opacity="1" fill-rule="nonzero"/><g clip-path="url(#70935d8726)"><path fill="#4c9ada" d="M 133.863281 180.214844 C 134.324219 179.832031 151.699219 168.28125 160.199219 161.335938 L 203.996094 198.5625 L 163.449219 155.949219 L 160.199219 152.535156 L 154.683594 158.332031 L 133.863281 180.214844 " fill-opacity="1" fill-rule="nonzero"/></g><path fill="#211c1d" d="M 83.371094 164.3125 L 100.683594 164.3125 L 100.683594 170.304688 L 107.546875 171.140625 L 109.023438 171.316406 L 110.097656 172.34375 L 122.863281 184.5625 L 160.199219 145.328125 L 191.277344 177.988281 L 160.195312 139.304688 L 98.285156 147.566406 L 98.285156 155.132812 L 95.027344 158.554688 L 95.027344 141.234375 L 84.839844 141.234375 L 84.839844 147.84375 L 71.714844 149.492188 L 55.207031 165.292969 L 83.371094 169.226562 L 83.371094 164.3125 " fill-opacity="1" fill-rule="nonzero"/><path fill="#4c9ada" d="M 168.722656 183.351562 L 168.722656 185.273438 L 161.679688 185.273438 L 161.679688 176.308594 C 165.570312 176.308594 168.722656 179.460938 168.722656 183.351562 " fill-opacity="1" fill-rule="nonzero"/><path fill="#4c9ada" d="M 158.90625 176.308594 L 158.90625 185.273438 L 151.863281 185.273438 L 151.863281 183.351562 C 151.863281 179.460938 155.015625 176.308594 158.90625 176.308594 " fill-opacity="1" fill-rule="nonzero"/><path fill="#4c9ada" d="M 168.722656 195.082031 L 161.679688 195.082031 L 161.679688 188.039062 L 168.722656 188.039062 L 168.722656 195.082031 " fill-opacity="1" fill-rule="nonzero"/><path fill="#4c9ada" d="M 158.90625 195.082031 L 151.863281 195.082031 L 151.863281 188.039062 L 158.90625 188.039062 L 158.90625 195.082031 " fill-opacity="1" fill-rule="nonzero"/><g clip-path="url(#34dc452821)"><path fill="#211c1d" d="M 0.484375 215.929688 L 25.800781 194.410156 L 36.503906 185.3125 C 39.746094 187.964844 44.558594 191.425781 48.824219 194.410156 C 53.757812 197.859375 57.960938 200.667969 58.164062 200.835938 L 52.046875 194.410156 L 41.039062 182.839844 L 39.054688 180.753906 L 36.503906 178.074219 L 33.828125 180.882812 L 0.484375 215.929688 " fill-opacity="1" fill-rule="nonzero"/></g><path fill="#4c9ada" d="M 10.941406 199.007812 L 36.503906 172.144531 L 42.003906 177.929688 L 57.683594 194.410156 L 74.914062 212.511719 L 145.597656 212.511719 L 119.785156 187.800781 L 107.007812 175.574219 L 96.214844 174.261719 L 96.214844 168.777344 L 87.835938 168.777344 L 87.835938 183.027344 L 85.15625 180.210938 L 85.15625 173.984375 L 51.09375 169.230469 L 36.503906 167.191406 L 10.941406 199.007812 " fill-opacity="1" fill-rule="nonzero"/><path fill="#211c1d" d="M 29.492188 203.417969 L 29.492188 204.996094 L 35.285156 204.996094 L 35.285156 197.625 C 32.085938 197.625 29.492188 200.21875 29.492188 203.417969 " fill-opacity="1" fill-rule="nonzero"/><path fill="#211c1d" d="M 37.566406 197.625 L 37.566406 204.996094 L 43.359375 204.996094 L 43.359375 203.417969 C 43.359375 200.21875 40.765625 197.625 37.566406 197.625 " fill-opacity="1" fill-rule="nonzero"/><path fill="#211c1d" d="M 29.492188 213.0625 L 35.285156 213.0625 L 35.285156 207.273438 L 29.492188 207.273438 L 29.492188 213.0625 " fill-opacity="1" fill-rule="nonzero"/><path fill="#211c1d" d="M 37.566406 213.0625 L 43.359375 213.0625 L 43.359375 207.273438 L 37.566406 207.273438 L 37.566406 213.0625 " fill-opacity="1" fill-rule="nonzero"/><path fill="#211c1d" d="M 121.109375 140.011719 L 120.347656 140.324219 L 120.347656 140.117188 Z M 121.109375 140.011719 " fill-opacity="1" fill-rule="nonzero"/></g></g></g></svg>